HIERARCHY
ROOT Hips
{
	OFFSET -0.001795 -0.223333 0.028219
	CHANNELS 6 Xposition Yposition Zposition Zrotation Yrotation Xrotation 
	JOINT LeftUpLeg
	{
		OFFSET 0.069520 -0.091406 -0.006815
		CHANNELS 3 Zrotation Yrotation Xrotation
		JOINT LeftLeg
		{
			OFFSET 0.034277 -0.375199 -0.004496
			CHANNELS 3 Zrotation Yrotation Xrotation
			JOINT LeftFoot
			{
				OFFSET -0.013596 -0.397961 -0.043693
				CHANNELS 3 Zrotation Yrotation Xrotation
				JOINT LeftToe
				{
					OFFSET 0.026358 -0.055791 0.119288
					CHANNELS 3 Zrotation Yrotation Xrotation
					End Site
					{
						OFFSET 0.000000 0.000000 0.000000
					}
				}
			}
		}
	}
	JOINT RightUpLeg
	{
		OFFSET -0.067670 -0.090522 -0.004320
		CHANNELS 3 Zrotation Yrotation Xrotation
		JOINT RightLeg
		{
			OFFSET -0.038290 -0.382569 -0.008850
			CHANNELS 3 Zrotation Yrotation Xrotation
			JOINT RightFoot
			{
				OFFSET 0.015774 -0.398415 -0.042312
				CHANNELS 3 Zrotation Yrotation Xrotation
				JOINT RightToe
				{
					OFFSET -0.025372 -0.048144 0.123348
					CHANNELS 3 Zrotation Yrotation Xrotation
					End Site
					{
						OFFSET 0.000000 0.000000 0.000000
					}
				}
			}
		}
	}
	JOINT Spine
	{
		OFFSET -0.002533 0.108963 -0.026696
		CHANNELS 3 Zrotation Yrotation Xrotation
		JOINT Spine1
		{
			OFFSET 0.005487 0.135180 0.001092
			CHANNELS 3 Zrotation Yrotation Xrotation
			JOINT Spine2
			{
				OFFSET 0.001457 0.052922 0.025425
				CHANNELS 3 Zrotation Yrotation Xrotation
				JOINT Neck
				{
					OFFSET -0.002778 0.213870 -0.042857
					CHANNELS 3 Zrotation Yrotation Xrotation
					JOINT Head
					{
						OFFSET 0.005152 0.064970 0.051349
						CHANNELS 3 Zrotation Yrotation Xrotation
						End Site
						{
							OFFSET 0.000000 0.000000 0.000000
						}
					}
				}
				JOINT LeftShoulder
				{
					OFFSET 0.078845 0.121749 -0.034090
					CHANNELS 3 Zrotation Yrotation Xrotation
					JOINT LeftArm
					{
						OFFSET 0.090977 0.030469 -0.008868
						CHANNELS 3 Zrotation Yrotation Xrotation
						JOINT LeftForeArm
						{
							OFFSET 0.259612 -0.012772 -0.027456
							CHANNELS 3 Zrotation Yrotation Xrotation
							JOINT LeftHand
							{
								OFFSET 0.249234 0.008986 -0.001171
								CHANNELS 3 Zrotation Yrotation Xrotation
								End Site
								{
									OFFSET 0.000000 0.000000 0.000000
								}
							}
						}
					}
				}
				JOINT RightShoulder
				{
					OFFSET -0.081759 0.118833 -0.038615
					CHANNELS 3 Zrotation Yrotation Xrotation
					JOINT RightArm
					{
						OFFSET -0.096012 0.032551 -0.009143
						CHANNELS 3 Zrotation Yrotation Xrotation
						JOINT RightForeArm
						{
							OFFSET -0.253742 -0.013329 -0.021401
							CHANNELS 3 Zrotation Yrotation Xrotation
							JOINT RightHand
							{
								OFFSET -0.255298 0.007772 -0.005559
								CHANNELS 3 Zrotation Yrotation Xrotation
								End Site
								{
									OFFSET 0.000000 0.000000 0.000000
								}
							}
						}
					}
				}
			}
		}
	}
}
MOTION
Frames: 9
Frame Time: 0.050000
0.000000 0.949852 0.000000 -0.768349 1.829992 -0.529858 0.829290 0.215373 2.772908 1.418773 -0.162877 0.241962 -2.753580 -1.473651 8.024509 0.000000 0.000000 0.000000 2.520422 -0.158239 0.888842 1.585779 -0.157847 0.699199 3.815509 4.604680 8.303740 0.000000 0.000000 0.000000 1.280133 -0.019128 0.220628 -0.791767 0.348360 1.256038 -1.492672 0.771854 3.194093 4.523386 -1.762862 -12.971704 0.000000 0.000000 0.000000 -29.885058 -1.950031 -2.693375 -44.521273 -2.943974 -3.850107 -6.354840 -17.888511 1.589799 0.000000 0.000000 0.000000 29.397109 -1.629966 -3.238442 51.195842 4.776640 -3.102982 2.816262 18.306835 1.051564 0.000000 0.000000 0.000000 
0.000590 0.949207 0.000532 -0.935217 1.603090 0.168008 1.320465 0.183257 2.616043 0.760739 -0.051482 -0.719444 -2.676079 -1.367900 8.006627 0.000000 0.000000 0.000000 2.305864 -0.055529 0.058244 2.205999 -0.225690 0.851098 3.905358 4.789589 8.272116 0.000000 0.000000 0.000000 1.358926 0.041248 -1.018753 -1.121321 0.478013 2.687017 -1.386934 0.614647 2.454977 4.354481 -1.586885 -13.589095 0.000000 0.000000 0.000000 -29.994508 -1.015934 -3.223093 -44.574779 -3.057934 -3.788028 -6.207684 -18.603076 1.635753 0.000000 0.000000 0.000000 29.129580 -1.737363 -3.442047 51.868741 4.658278 -3.059329 2.985848 19.267601 1.123078 0.000000 0.000000 0.000000 
0.000839 0.949029 0.000916 -0.758314 1.731707 0.382999 1.166669 0.181042 2.525720 0.684057 -0.034080 -0.953492 -2.756835 -1.474839 8.067669 0.000000 0.000000 0.000000 2.538639 -0.024955 -0.236349 1.449644 -0.132510 1.027899 3.731089 4.600969 7.959000 0.000000 0.000000 0.000000 1.388139 0.037283 -0.963367 -1.018997 0.474169 0.608178 -1.615998 0.463572 4.018015 3.630934 -1.260396 -12.757477 0.000000 0.000000 0.000000 -28.863467 -1.194752 -2.871119 -45.201569 -2.806023 -4.086160 -5.894955 -18.255771 1.568011 0.000000 0.000000 0.000000 29.312205 -0.848774 -2.823057 51.017686 4.487620 -3.235448 2.951830 18.951131 1.106149 0.000000 0.000000 0.000000 
0.000728 0.949116 0.001555 -0.802956 2.202453 0.526413 1.371434 0.177500 2.622289 0.522894 0.001191 -1.439576 -3.025458 -1.853151 8.195515 0.000000 0.000000 0.000000 2.551852 0.042444 -0.771912 1.608001 -0.134645 1.805210 3.477679 4.172472 7.836189 0.000000 0.000000 0.000000 1.001375 0.029242 -0.802230 -1.130521 0.512503 1.200761 -1.029700 -0.233923 3.179365 3.503793 -1.258057 -12.389552 0.000000 0.000000 0.000000 -29.026528 -0.231195 -3.328168 -45.205127 -2.924904 -4.036053 -6.625831 -18.061870 1.674132 0.000000 0.000000 0.000000 29.181967 -0.701147 -2.973618 50.939425 4.305326 -3.158656 3.619744 19.115872 1.190923 0.000000 0.000000 0.000000 
0.000328 0.949386 0.002352 -0.744604 2.561013 0.475290 1.291976 0.182821 2.670525 0.675577 -0.013330 -1.418231 -3.214289 -2.111778 8.288892 0.000000 0.000000 0.000000 2.680136 0.050086 -0.832126 1.374102 -0.098018 2.133742 3.289114 3.843983 7.759794 0.000000 0.000000 0.000000 0.777200 0.018156 -0.548410 -0.712359 0.295995 1.504171 -1.325556 -0.442220 2.681032 3.111963 -1.059176 -11.804821 0.000000 0.000000 0.000000 -28.639129 -0.161480 -3.357297 -45.071124 -2.729312 -4.047970 -6.896425 -17.867998 1.692194 0.000000 0.000000 0.000000 28.740144 -0.360234 -2.707688 51.010688 4.514680 -3.029016 3.548171 19.076569 1.173643 0.000000 0.000000 0.000000 
-0.000416 0.949526 0.003850 -0.630754 2.873046 0.495396 1.273416 0.205378 2.977261 0.652953 0.008167 -1.895823 -3.430015 -2.369111 8.488760 0.000000 0.000000 0.000000 2.832611 0.055268 -0.879003 1.029474 -0.046994 2.384241 3.103340 3.550408 7.613161 0.000000 0.000000 0.000000 0.245250 -0.001106 -0.030349 -0.531378 0.210362 1.323792 -1.075731 -0.747305 2.299181 2.882631 -0.928550 -11.746594 0.000000 0.000000 0.000000 -28.945813 0.517878 -3.771357 -44.712716 -2.525977 -4.076415 -6.767814 -17.839994 1.673716 0.000000 0.000000 0.000000 28.666550 -0.387914 -2.818019 51.049690 4.486051 -2.979573 3.668944 19.039360 1.178230 0.000000 0.000000 0.000000 
-0.001423 0.949474 0.006262 -0.509404 2.936750 0.561462 1.090751 0.221912 3.089093 0.887095 -0.009847 -1.954030 -3.459209 -2.403327 8.512779 0.000000 0.000000 0.000000 3.113628 0.072886 -1.045752 0.445589 0.046202 2.851883 2.975395 3.424950 7.325920 0.000000 0.000000 0.000000 0.064993 -0.013806 0.322877 -0.437166 0.165458 1.266280 -1.431280 -0.856314 2.015341 3.135060 -1.105289 -11.579025 0.000000 0.000000 0.000000 -28.746593 1.027439 -4.084089 -44.522556 -2.133426 -4.170206 -6.898931 -18.052480 1.712098 0.000000 0.000000 0.000000 28.373187 -0.279018 -2.724426 51.397513 4.373844 -3.014754 3.976049 19.978369 1.289485 0.000000 0.000000 0.000000 
-0.002719 0.948540 0.009869 -0.414527 3.049071 0.433215 1.202586 0.247753 3.498615 0.713556 0.008069 -2.020535 -3.474001 -2.550836 8.255981 0.000000 0.000000 0.000000 3.327761 0.074543 -1.065538 0.092150 0.120963 3.592559 2.766472 3.291195 6.706060 0.000000 0.000000 0.000000 -0.088124 -0.037319 0.966494 -0.164938 0.044933 0.900482 -1.818913 -0.809117 1.944990 3.403170 -1.334736 -10.962197 0.000000 0.000000 0.000000 -28.548058 1.077974 -4.165450 -44.399269 -1.985454 -4.183191 -6.769142 -18.168065 1.695494 0.000000 0.000000 0.000000 28.532376 -0.758162 -2.977600 51.207679 4.317279 -3.046164 4.566640 20.704522 1.446040 0.000000 0.000000 0.000000 
-0.004491 0.947272 0.014438 -0.470510 2.901206 0.270949 1.246590 0.289422 4.060312 0.960090 -0.009009 -2.129842 -3.298469 -2.472608 7.814970 0.000000 0.000000 0.000000 3.631594 0.062654 -0.999243 -0.109106 0.177653 4.324131 2.673482 3.400864 6.060035 0.000000 0.000000 0.000000 -0.028358 -0.057358 1.436925 -0.208434 0.066822 0.905224 -1.751213 -1.062248 1.815525 3.309537 -1.340666 -10.585343 0.000000 0.000000 0.000000 -28.490098 1.154476 -4.083108 -44.307423 -2.115721 -4.156110 -6.847579 -17.778906 1.678849 0.000000 0.000000 0.000000 28.448505 -0.443715 -2.902158 50.866640 4.512448 -2.898373 5.086175 20.943080 1.535325 0.000000 0.000000 0.000000 
